<?xml version="1.0" encoding="utf-8"?>
<!-- Generator: Adobe Illustrator 21.0.1, SVG Export Plug-In . SVG Version: 6.00 Build 0)  -->
<svg version="1.1" id="Layer_1" xmlns="http://www.w3.org/2000/svg" xmlns:xlink="http://www.w3.org/1999/xlink" x="0px" y="0px"
	 viewBox="0 0 300 300" style="enable-background:new 0 0 300 300;" xml:space="preserve">
<g>
	<g>
		<path d="M150,0C67.2,0,0,67.2,0,150c0,82.8,67.2,150,150,150s150-67.2,150-150S232.8,0,150,0z M61.1,224.6
			c-7.8,0-14.2-6.3-14.2-14.2c0-7.8,6.3-14.2,14.2-14.2c7.8,0,14.2,6.3,14.2,14.2C75.3,218.3,69,224.6,61.1,224.6z M61.1,164.2
			c-7.8,0-14.2-6.3-14.2-14.2c0-7.8,6.3-14.2,14.2-14.2c7.8,0,14.2,6.3,14.2,14.2C75.3,157.8,69,164.2,61.1,164.2z M61.1,103.8
			c-7.8,0-14.2-6.3-14.2-14.2c0-7.8,6.3-14.2,14.2-14.2c7.8,0,14.2,6.3,14.2,14.2C75.3,97.4,69,103.8,61.1,103.8z M238.8,223.7
			H105.8c-7.8,0-14.2-6.4-14.2-14.2s6.4-14.2,14.2-14.2h133.1c7.8,0,14.2,6.4,14.2,14.2S246.7,223.7,238.8,223.7z M238.8,163.8
			H105.8c-7.8,0-14.2-6.4-14.2-14.2s6.4-14.2,14.2-14.2h133.1c7.8,0,14.2,6.4,14.2,14.2C253.1,157.4,246.7,163.8,238.8,163.8z
			 M238.8,103.8H105.8c-7.8,0-14.2-6.4-14.2-14.2s6.4-14.2,14.2-14.2h133.1c7.8,0,14.2,6.4,14.2,14.2S246.7,103.8,238.8,103.8z"/>
	</g>
</g>
</svg>
